<svg width="26" height="26" viewBox="0 0 26 26" fill="none" xmlns="http://www.w3.org/2000/svg">
<path fill-rule="evenodd" clip-rule="evenodd" d="M13 0.083374C13.5523 0.083374 14 0.531089 14 1.08337V24.9167C14 25.469 13.5523 25.9167 13 25.9167C12.4477 25.9167 12 25.469 12 24.9167V1.08337C12 0.531089 12.4477 0.083374 13 0.083374Z" fill="#171717"/>
<path fill-rule="evenodd" clip-rule="evenodd" d="M6.90345 5.82007C7.80206 4.92146 9.02084 4.41663 10.2917 4.41663H18.4167C18.969 4.41663 19.4167 4.86434 19.4167 5.41663C19.4167 5.96891 18.969 6.41663 18.4167 6.41663H10.2917C9.55127 6.41663 8.8412 6.71075 8.31766 7.23429C7.79412 7.75783 7.5 8.4679 7.5 9.20829C7.5 9.94869 7.79412 10.6588 8.31766 11.1823C8.8412 11.7058 9.55127 12 10.2917 12H15.7083C16.9792 12 18.1979 12.5048 19.0966 13.4034C19.9952 14.302 20.5 15.5208 20.5 16.7916C20.5 18.0625 19.9952 19.2812 19.0966 20.1798C18.1979 21.0785 16.9792 21.5833 15.7083 21.5833H6.5C5.94772 21.5833 5.5 21.1356 5.5 20.5833C5.5 20.031 5.94772 19.5833 6.5 19.5833H15.7083C16.4487 19.5833 17.1588 19.2892 17.6823 18.7656C18.2059 18.2421 18.5 17.532 18.5 16.7916C18.5 16.0512 18.2059 15.3412 17.6823 14.8176C17.1588 14.2941 16.4487 14 15.7083 14H10.2917C9.02084 14 7.80206 13.4951 6.90345 12.5965C6.00484 11.6979 5.5 10.4791 5.5 9.20829C5.5 7.93746 6.00484 6.71868 6.90345 5.82007Z" fill="#171717"/>
</svg>
